<svg aria-hidden="true" style="position: absolute; width: 0; height: 0; overflow: hidden;" version="1.1" xmlns="http://www.w3.org/2000/svg" xmlns:xlink="http://www.w3.org/1999/xlink">
<defs>
<symbol id="icon-cart" viewBox="0 0 32 32">
<path d="M28.040 19.698h-16.285l0.364 1.778h14.912c0.736 0 1.333 0.597 1.333 1.333 0 0.105-0.012 0.207-0.035 0.305l0.002-0.009-0.307 1.348c1.048 0.515 1.756 1.575 1.756 2.8 0 1.718-1.393 3.111-3.111 3.111-0.016 0-0.033-0-0.049-0l0.002 0c-1.658-0.024-3.020-1.368-3.065-3.025-0.001-0.027-0.001-0.058-0.001-0.089 0-0.87 0.358-1.656 0.934-2.219l0.001-0.001h-11.647c0.577 0.565 0.934 1.352 0.934 2.222 0 1.718-1.393 3.111-3.111 3.111-0.052 0-0.104-0.001-0.155-0.004l0.007 0c-1.593-0.083-2.865-1.349-2.958-2.931l-0-0.008c-0.003-0.050-0.005-0.109-0.005-0.169 0-1.148 0.622-2.151 1.548-2.689l0.015-0.008-3.902-19.080h-3.883c-0.736 0-1.333-0.597-1.333-1.333 0-0 0-0 0-0.001v0-0.889c0-0.736 0.597-1.333 1.333-1.333h5.696c0.634 0 1.18 0.445 1.306 1.066l0.509 2.49h21.821c0.736 0 1.333 0.597 1.333 1.333 0 0.105-0.012 0.207-0.035 0.305l0.002-0.009-2.626 11.555c-0.139 0.599-0.668 1.038-1.3 1.038-0 0-0 0-0 0h0zM22.39 12.587h-2.39v-3.334c0-0.368-0.298-0.666-0.667-0.666h-1.333c-0.368 0-0.667 0.298-0.667 0.666v3.334h-2.39c-0.594 0-0.892 0.718-0.471 1.138l3.724 3.724c0.121 0.121 0.287 0.195 0.471 0.195s0.351-0.075 0.471-0.195l3.724-3.724c0.42-0.42 0.122-1.138-0.472-1.138z"></path>
</symbol>
<symbol id="icon-close" viewBox="0 0 32 32">
<path d="M2.426 1.245l28.344 28.344c0.326 0.326 0.326 0.855 0 1.181s-0.855 0.326-1.181 0l-28.344-28.344c-0.326-0.326-0.326-0.855 0-1.181s0.855-0.326 1.181 0z"></path>
<path d="M1.231 29.574l28.344-28.344c0.326-0.326 0.855-0.326 1.181 0s0.326 0.855 0 1.181l-28.344 28.344c-0.326 0.326-0.855 0.326-1.181 0s-0.326-0.855 0-1.181z"></path>
</symbol>
<symbol id="icon-insta" viewBox="0 0 32 32">
<path d="M16.004 7.794c-0.004 0-0.009 0-0.013 0-4.523 0-8.189 3.667-8.189 8.189 0 0.005 0 0.009 0 0.014v-0.001c0 0.004 0 0.009 0 0.013 0 4.523 3.667 8.189 8.189 8.189 0.005 0 0.009 0 0.014 0h-0.001c0.004 0 0.008 0 0.013 0 4.523 0 8.189-3.667 8.189-8.189 0-0.005 0-0.009 0-0.014v0.001c0-0.004 0-0.008 0-0.013 0-4.523-3.667-8.189-8.189-8.189-0.005 0-0.009 0-0.014 0h0.001zM16.004 21.329c-2.934 0-5.333-2.392-5.333-5.333s2.392-5.332 5.333-5.332c2.941 0 5.332 2.392 5.332 5.332s-2.399 5.333-5.332 5.333zM26.455 7.459c0 0.001 0 0.003 0 0.005 0 1.054-0.855 1.909-1.909 1.909-0.002 0-0.003 0-0.005 0h0c-0.001 0-0.003 0-0.005 0-1.054 0-1.909-0.855-1.909-1.909 0-0.002 0-0.003 0-0.005v0c0-1.057 0.857-1.914 1.914-1.914s1.914 0.857 1.914 1.914v0zM31.887 9.4c-0.122-2.563-0.707-4.833-2.584-6.703-1.87-1.871-4.141-2.456-6.703-2.584-2.641-0.15-10.558-0.15-13.199 0-2.556 0.122-4.826 0.707-6.703 2.577s-2.456 4.141-2.584 6.704c-0.151 2.641-0.151 10.558 0 13.199 0.122 2.563 0.707 4.833 2.584 6.703s4.141 2.456 6.703 2.584c2.641 0.15 10.558 0.15 13.199 0 2.563-0.122 4.833-0.707 6.703-2.584 1.871-1.87 2.456-4.141 2.584-6.703 0.15-2.641 0.15-10.551 0-13.192zM28.476 25.427c-0.561 1.395-1.646 2.48-3.005 3.028l-0.036 0.013c-2.106 0.835-7.104 0.643-9.43 0.643-2.328 0-7.332 0.186-9.431-0.643-1.395-0.561-2.479-1.646-3.027-3.004l-0.013-0.036c-0.835-2.106-0.643-7.103-0.643-9.43s-0.186-7.331 0.643-9.43c0.561-1.395 1.646-2.48 3.005-3.028l0.036-0.013c2.106-0.836 7.103-0.643 9.43-0.643s7.331-0.186 9.43 0.643c1.395 0.561 2.48 1.645 3.028 3.004l0.013 0.036c0.835 2.106 0.642 7.104 0.642 9.43 0 2.328 0.193 7.332-0.643 9.431z"></path>
</symbol>
<symbol id="icon-mail" viewBox="0 0 32 32">
<path d="M29 3.84h-26.001c-1.657 0-3 1.343-3 3 0 0 0 0 0 0.001v-0 17.999c0 0 0 0 0 0.001 0 1.657 1.343 3 3 3 0 0 0 0 0.001 0h25.999c0 0 0 0 0.001 0 1.657 0 3-1.343 3-3 0-0 0-0 0-0.001v0-17.999c0-0 0-0.001 0-0.001 0-1.657-1.343-3-3-3-0 0-0 0-0.001 0h0zM29 6.84v2.55c-1.402 1.142-3.636 2.916-8.412 6.656-1.052 0.828-3.137 2.817-4.588 2.794-1.45 0.024-3.536-1.966-4.589-2.794-4.774-3.74-7.010-5.514-8.411-6.656v-2.55h25.999zM3 24.839v-11.599c-0.001 0.057 2.133 1.749 4.274 3.433l2.284 1.732c1.366 1.075 3.759 3.45 6.442 3.435 2.67 0.015 5.032-2.325 6.441-3.434 3.096-2.424 5.126-4.026 6.559-5.166v11.6h-25.999z"></path>
</symbol>
<symbol id="icon-phone" viewBox="0 0 32 32">
<path d="M23.069 0h-14.254c-1.686 0-3.055 1.344-3.055 3v25.999c0 1.656 1.368 3 3.055 3h14.254c1.686 0 3.055-1.344 3.055-3v-25.999c0-1.656-1.368-3-3.055-3zM15.942 30c-1.126 0-2.036-0.894-2.036-2s0.91-2 2.036-2 2.036 0.894 2.036 2-0.91 2-2.036 2zM23.069 23.25c0 0.413-0.344 0.75-0.764 0.75h-12.728c-0.001 0-0.003 0-0.005 0-0.416 0-0.754-0.335-0.759-0.75v-19.5c0-0.412 0.344-0.749 0.764-0.749h12.727c0.42 0 0.764 0.337 0.764 0.749v19.501z"></path>
</symbol>
<symbol id="icon-telegram" viewBox="0 0 32 32">
<path d="M31.909 5.003l-4.829 22.774c-0.364 1.607-1.314 2.007-2.664 1.25l-7.358-5.421-3.55 3.414c-0.393 0.393-0.721 0.721-1.478 0.721l0.528-7.493 13.637-12.323c0.593-0.528-0.128-0.821-0.922-0.292l-16.858 10.614-7.258-2.272c-1.579-0.493-1.608-1.578 0.328-2.336l28.388-10.935c1.315-0.493 2.465 0.293 2.036 2.3z"></path>
</symbol>
<symbol id="icon-whatsapp" viewBox="0 0 32 32">
<path d="M27.207 4.65c-2.993-3-6.979-4.65-11.213-4.65-8.743 0-15.858 7.114-15.858 15.857 0 2.793 0.728 5.521 2.115 7.928l-2.25 8.214 8.407-2.207c2.185 1.214 4.793 1.929 7.567 1.929 0.004 0 0.008 0 0.012 0h0.006c8.737 0 16.008-7.114 16.008-15.857 0-4.236-1.8-8.214-4.793-11.214zM15.994 29.050c-2.372 0-4.693-0.636-6.714-1.836l-0.479-0.285-4.986 1.307 1.329-4.864-0.314-0.5c-1.264-1.982-2.015-4.399-2.015-6.991 0-0.008 0-0.017 0-0.025v0.001c0-7.264 5.914-13.179 13.186-13.179 3.521 0 6.829 1.372 9.315 3.864s4.014 5.8 4.006 9.322c0 7.272-6.064 13.186-13.328 13.186zM23.222 19.178c-0.392-0.2-2.342-1.157-2.707-1.286-0.364-0.136-0.628-0.2-0.892 0.2s-1.021 1.286-1.258 1.557c-0.228 0.264-0.464 0.3-0.858 0.1-2.328-1.164-3.857-2.078-5.392-4.714-0.408-0.7 0.407-0.65 1.164-2.164 0.128-0.264 0.064-0.493-0.036-0.693s-0.893-2.15-1.222-2.943c-0.321-0.772-0.65-0.664-0.893-0.678-0.228-0.015-0.493-0.015-0.757-0.015s-0.692 0.1-1.057 0.493c-0.365 0.4-1.386 1.357-1.386 3.308s1.421 3.836 1.615 4.1c0.2 0.264 2.793 4.264 6.771 5.986 2.515 1.085 3.5 1.178 4.757 0.993 0.764-0.115 2.342-0.957 2.671-1.885s0.329-1.722 0.228-1.886c-0.093-0.179-0.357-0.278-0.75-0.471z"></path>
</symbol>
</defs>
</svg>
